<?xml version="1.0" encoding="UTF-8" standalone="no"?>
<!DOCTYPE svg PUBLIC "-//W3C//DTD SVG 1.1//EN"
 "http://www.w3.org/Graphics/SVG/1.1/DTD/svg11.dtd">
<!-- Generated by graphviz version 2.43.0 (0)
 -->
<!-- Title: %3 Pages: 1 -->
<svg width="2549pt" height="701pt"
 viewBox="0.00 0.00 2548.67 701.00" xmlns="http://www.w3.org/2000/svg" xmlns:xlink="http://www.w3.org/1999/xlink">
<g id="graph0" class="graph" transform="scale(1 1) rotate(0) translate(4 697)">
<title>%3</title>
<polygon fill="white" stroke="transparent" points="-4,4 -4,-697 2544.67,-697 2544.67,4 -4,4"/>
<!-- vmHost.RunSmartContractCall -->
<g id="node1" class="node">
<title>vmHost.RunSmartContractCall</title>
<polygon fill="lightgrey" stroke="black" points="968.59,-663 705.59,-663 705.59,-627 968.59,-627 968.59,-663"/>
<text text-anchor="middle" x="837.09" y="-641.3" font-family="Times,serif" font-size="14.00">vmHost.RunSmartContractCall [0]</text>
<text text-anchor="start" x="650.59" y="-681.8" font-family="Times,serif" font-size="14.00" fill="green">P10000</text>
<text text-anchor="start" x="668.09" y="-666.8" font-family="Times,serif" font-size="14.00" fill="green">R0</text>
</g>
<!-- hostCore.doRunSmartContractCall -->
<g id="node2" class="node">
<title>hostCore.doRunSmartContractCall</title>
<ellipse fill="lightgrey" stroke="black" cx="837.09" cy="-543" rx="188.47" ry="18"/>
<text text-anchor="middle" x="837.09" y="-539.3" font-family="Times,serif" font-size="14.00">hostCore.doRunSmartContractCall [0]</text>
</g>
<!-- vmHost.RunSmartContractCall&#45;&gt;hostCore.doRunSmartContractCall -->
<g id="edge1" class="edge">
<title>vmHost.RunSmartContractCall&#45;&gt;hostCore.doRunSmartContractCall</title>
<path fill="none" stroke="blue" d="M837.09,-626.58C837.09,-611.38 837.09,-589.07 837.09,-571.46"/>
<polygon fill="blue" stroke="blue" points="840.59,-571.22 837.09,-561.22 833.59,-571.22 840.59,-571.22"/>
<text text-anchor="middle" x="859.59" y="-597.8" font-family="Times,serif" font-size="14.00">Sync</text>
<text text-anchor="middle" x="859.59" y="-582.8" font-family="Times,serif" font-size="14.00">P0/U0</text>
</g>
<!-- hostCore.callSCMethod -->
<g id="node5" class="node">
<title>hostCore.callSCMethod</title>
<ellipse fill="lightgrey" stroke="black" cx="886.09" cy="-441" rx="135.68" ry="18"/>
<text text-anchor="middle" x="886.09" y="-437.3" font-family="Times,serif" font-size="14.00">hostCore.callSCMethod [0]</text>
</g>
<!-- hostCore.doRunSmartContractCall&#45;&gt;hostCore.callSCMethod -->
<g id="edge3" class="edge">
<title>hostCore.doRunSmartContractCall&#45;&gt;hostCore.callSCMethod</title>
<path fill="none" stroke="blue" d="M845.63,-524.58C853.21,-509.09 864.42,-486.22 873.12,-468.47"/>
<polygon fill="blue" stroke="blue" points="876.4,-469.74 877.65,-459.22 870.11,-466.66 876.4,-469.74"/>
<text text-anchor="middle" x="891.59" y="-495.8" font-family="Times,serif" font-size="14.00">Sync</text>
<text text-anchor="middle" x="891.59" y="-480.8" font-family="Times,serif" font-size="14.00">P0/U0</text>
</g>
<!-- vmHost.RunSmartContractCreate -->
<g id="node3" class="node">
<title>vmHost.RunSmartContractCreate</title>
<ellipse fill="lightgrey" stroke="black" cx="1335.09" cy="-645" rx="184.67" ry="18"/>
<text text-anchor="middle" x="1335.09" y="-641.3" font-family="Times,serif" font-size="14.00">vmHost.RunSmartContractCreate [0]</text>
</g>
<!-- hostCore.doRunSmartContractCreate -->
<g id="node4" class="node">
<title>hostCore.doRunSmartContractCreate</title>
<ellipse fill="lightgrey" stroke="black" cx="1335.09" cy="-543" rx="201.46" ry="18"/>
<text text-anchor="middle" x="1335.09" y="-539.3" font-family="Times,serif" font-size="14.00">hostCore.doRunSmartContractCreate [0]</text>
</g>
<!-- vmHost.RunSmartContractCreate&#45;&gt;hostCore.doRunSmartContractCreate -->
<g id="edge2" class="edge">
<title>vmHost.RunSmartContractCreate&#45;&gt;hostCore.doRunSmartContractCreate</title>
<path fill="none" stroke="blue" d="M1335.09,-626.58C1335.09,-611.38 1335.09,-589.07 1335.09,-571.46"/>
<polygon fill="blue" stroke="blue" points="1338.59,-571.22 1335.09,-561.22 1331.59,-571.22 1338.59,-571.22"/>
<text text-anchor="middle" x="1357.59" y="-597.8" font-family="Times,serif" font-size="14.00">Sync</text>
<text text-anchor="middle" x="1357.59" y="-582.8" font-family="Times,serif" font-size="14.00">P0/U0</text>
</g>
<!-- hostCore.performCodeDeployment -->
<g id="node6" class="node">
<title>hostCore.performCodeDeployment</title>
<ellipse fill="lightgrey" stroke="black" cx="1326.09" cy="-441" rx="188.47" ry="18"/>
<text text-anchor="middle" x="1326.09" y="-437.3" font-family="Times,serif" font-size="14.00">hostCore.performCodeDeployment [0]</text>
</g>
<!-- hostCore.doRunSmartContractCreate&#45;&gt;hostCore.performCodeDeployment -->
<g id="edge4" class="edge">
<title>hostCore.doRunSmartContractCreate&#45;&gt;hostCore.performCodeDeployment</title>
<path fill="none" stroke="blue" d="M1333.52,-524.58C1332.15,-509.38 1330.15,-487.07 1328.56,-469.46"/>
<polygon fill="blue" stroke="blue" points="1332.02,-468.87 1327.64,-459.22 1325.05,-469.49 1332.02,-468.87"/>
<text text-anchor="middle" x="1354.59" y="-495.8" font-family="Times,serif" font-size="14.00">Sync</text>
<text text-anchor="middle" x="1354.59" y="-480.8" font-family="Times,serif" font-size="14.00">P0/U0</text>
</g>
<!-- VM.execute -->
<g id="node7" class="node">
<title>VM.execute</title>
<ellipse fill="lightgrey" stroke="black" cx="1102.09" cy="-339" rx="81.49" ry="18"/>
<text text-anchor="middle" x="1102.09" y="-335.3" font-family="Times,serif" font-size="14.00">VM.execute [0]</text>
</g>
<!-- hostCore.callSCMethod&#45;&gt;VM.execute -->
<g id="edge6" class="edge">
<title>hostCore.callSCMethod&#45;&gt;VM.execute</title>
<path fill="none" stroke="blue" d="M921.76,-423.49C959.47,-406.03 1018.97,-378.48 1059.22,-359.85"/>
<polygon fill="blue" stroke="blue" points="1060.9,-362.93 1068.5,-355.55 1057.96,-356.57 1060.9,-362.93"/>
<text text-anchor="middle" x="1048.59" y="-393.8" font-family="Times,serif" font-size="14.00">Sync</text>
<text text-anchor="middle" x="1048.59" y="-378.8" font-family="Times,serif" font-size="14.00">P0/U0</text>
</g>
<!-- hostCore.performCodeDeployment&#45;&gt;VM.execute -->
<g id="edge5" class="edge">
<title>hostCore.performCodeDeployment&#45;&gt;VM.execute</title>
<path fill="none" stroke="blue" d="M1288.6,-423.26C1249.31,-405.72 1187.64,-378.19 1146.08,-359.64"/>
<polygon fill="blue" stroke="blue" points="1147.31,-356.36 1136.76,-355.48 1144.46,-362.75 1147.31,-356.36"/>
<text text-anchor="middle" x="1270.59" y="-393.8" font-family="Times,serif" font-size="14.00">Sync</text>
<text text-anchor="middle" x="1270.59" y="-378.8" font-family="Times,serif" font-size="14.00">P0/U0</text>
</g>
<!-- vmhooks.getCaller -->
<g id="node9" class="node">
<title>vmhooks.getCaller</title>
<ellipse fill="lightgrey" stroke="black" cx="113.09" cy="-222" rx="113.18" ry="18"/>
<text text-anchor="middle" x="113.09" y="-218.3" font-family="Times,serif" font-size="14.00">vmhooks.getCaller [0]</text>
</g>
<!-- VM.execute&#45;&gt;vmhooks.getCaller -->
<g id="edge8" class="edge">
<title>VM.execute&#45;&gt;vmhooks.getCaller</title>
<path fill="none" stroke="blue" d="M1022.08,-335.63C916.27,-331.85 724.14,-322.77 561.09,-303 428.74,-286.95 276.21,-257.3 187.62,-238.95"/>
<polygon fill="blue" stroke="blue" points="188.17,-235.49 177.66,-236.88 186.74,-242.35 188.17,-235.49"/>
<text text-anchor="middle" x="583.59" y="-284.3" font-family="Times,serif" font-size="14.00">Sync</text>
<text text-anchor="middle" x="583.59" y="-269.3" font-family="Times,serif" font-size="14.00">P0/U0</text>
</g>
<!-- vmhooks.storageStore -->
<g id="node10" class="node">
<title>vmhooks.storageStore</title>
<ellipse fill="lightgrey" stroke="black" cx="465.09" cy="-222" rx="130.78" ry="18"/>
<text text-anchor="middle" x="465.09" y="-218.3" font-family="Times,serif" font-size="14.00">vmhooks.storageStore [0]</text>
</g>
<!-- VM.execute&#45;&gt;vmhooks.storageStore -->
<g id="edge9" class="edge">
<title>VM.execute&#45;&gt;vmhooks.storageStore</title>
<path fill="none" stroke="blue" d="M1032.96,-329.42C983.11,-322.95 914.29,-313.43 854.09,-303 744.54,-284.02 618.65,-257.21 540.47,-239.96"/>
<polygon fill="blue" stroke="blue" points="540.76,-236.44 530.24,-237.7 539.25,-243.28 540.76,-236.44"/>
<text text-anchor="middle" x="876.59" y="-284.3" font-family="Times,serif" font-size="14.00">Sync</text>
<text text-anchor="middle" x="876.59" y="-269.3" font-family="Times,serif" font-size="14.00">P0/U0</text>
</g>
<!-- vmhooks.transferValueExecute -->
<g id="node11" class="node">
<title>vmhooks.transferValueExecute</title>
<ellipse fill="lightgrey" stroke="black" cx="875.09" cy="-222" rx="170.87" ry="18"/>
<text text-anchor="middle" x="875.09" y="-218.3" font-family="Times,serif" font-size="14.00">vmhooks.transferValueExecute [0]</text>
</g>
<!-- VM.execute&#45;&gt;vmhooks.transferValueExecute -->
<g id="edge10" class="edge">
<title>VM.execute&#45;&gt;vmhooks.transferValueExecute</title>
<path fill="none" stroke="blue" d="M1055.66,-324.17C1038.49,-318.43 1019.07,-311.19 1002.09,-303 968.08,-286.59 931.88,-263.13 906.86,-245.85"/>
<polygon fill="blue" stroke="blue" points="908.71,-242.87 898.5,-240.02 904.7,-248.61 908.71,-242.87"/>
<text text-anchor="middle" x="1024.59" y="-284.3" font-family="Times,serif" font-size="14.00">Sync</text>
<text text-anchor="middle" x="1024.59" y="-269.3" font-family="Times,serif" font-size="14.00">P0/U0</text>
</g>
<!-- vmhooks.executeOnDestContext -->
<g id="node12" class="node">
<title>vmhooks.executeOnDestContext</title>
<ellipse fill="lightgrey" stroke="black" cx="1331.09" cy="-222" rx="177.37" ry="18"/>
<text text-anchor="middle" x="1331.09" y="-218.3" font-family="Times,serif" font-size="14.00">vmhooks.executeOnDestContext [0]</text>
</g>
<!-- VM.execute&#45;&gt;vmhooks.executeOnDestContext -->
<g id="edge11" class="edge">
<title>VM.execute&#45;&gt;vmhooks.executeOnDestContext</title>
<path fill="none" stroke="blue" d="M1133.45,-322.25C1173.59,-302.09 1243.31,-267.08 1288.3,-244.49"/>
<polygon fill="blue" stroke="blue" points="1290.14,-247.48 1297.51,-239.86 1287,-241.22 1290.14,-247.48"/>
<text text-anchor="middle" x="1279.59" y="-284.3" font-family="Times,serif" font-size="14.00">Sync</text>
<text text-anchor="middle" x="1279.59" y="-269.3" font-family="Times,serif" font-size="14.00">P0/U0</text>
</g>
<!-- vmhooks.asyncCall -->
<g id="node13" class="node">
<title>vmhooks.asyncCall</title>
<ellipse fill="lightgrey" stroke="black" cx="1731.09" cy="-222" rx="114.28" ry="18"/>
<text text-anchor="middle" x="1731.09" y="-218.3" font-family="Times,serif" font-size="14.00">vmhooks.asyncCall [0]</text>
</g>
<!-- VM.execute&#45;&gt;vmhooks.asyncCall -->
<g id="edge12" class="edge">
<title>VM.execute&#45;&gt;vmhooks.asyncCall</title>
<path fill="none" stroke="red" d="M1168.77,-328.5C1214.06,-321.85 1275.29,-312.5 1329.09,-303 1443.5,-282.81 1575.49,-255.83 1656.1,-238.94"/>
<polygon fill="red" stroke="red" points="1657.08,-242.31 1666.15,-236.83 1655.65,-235.46 1657.08,-242.31"/>
<text text-anchor="middle" x="1598.59" y="-291.8" font-family="Times,serif" font-size="14.00">Async</text>
<text text-anchor="middle" x="1598.59" y="-276.8" font-family="Times,serif" font-size="14.00">callback</text>
<text text-anchor="middle" x="1598.59" y="-261.8" font-family="Times,serif" font-size="14.00">P0/U0/CU0</text>
</g>
<!-- hostCore.execute -->
<g id="node8" class="node">
<title>hostCore.execute</title>
<ellipse fill="lightgrey" stroke="black" cx="2008.09" cy="-18" rx="107.48" ry="18"/>
<text text-anchor="middle" x="2008.09" y="-14.3" font-family="Times,serif" font-size="14.00">hostCore.execute [0]</text>
</g>
<!-- hostCore.execute&#45;&gt;VM.execute -->
<g id="edge7" class="edge">
<title>hostCore.execute&#45;&gt;VM.execute</title>
<path fill="none" stroke="blue" d="M2004.7,-36.09C1995.54,-77.67 1966.33,-184.7 1899.09,-240 1793.17,-327.12 1379.27,-338.21 1193.37,-338.68"/>
<polygon fill="blue" stroke="blue" points="1193.34,-335.18 1183.35,-338.7 1193.35,-342.18 1193.34,-335.18"/>
<text text-anchor="middle" x="1984.59" y="-174.8" font-family="Times,serif" font-size="14.00">Sync</text>
<text text-anchor="middle" x="1984.59" y="-159.8" font-family="Times,serif" font-size="14.00">P0/U0</text>
</g>
<!-- context.Runtime -->
<g id="node16" class="node">
<title>context.Runtime</title>
<ellipse fill="lightgrey" stroke="black" cx="113.09" cy="-120" rx="103.18" ry="18"/>
<text text-anchor="middle" x="113.09" y="-116.3" font-family="Times,serif" font-size="14.00">context.Runtime [0]</text>
</g>
<!-- vmhooks.getCaller&#45;&gt;context.Runtime -->
<g id="edge15" class="edge">
<title>vmhooks.getCaller&#45;&gt;context.Runtime</title>
<path fill="none" stroke="blue" d="M113.09,-203.58C113.09,-188.38 113.09,-166.07 113.09,-148.46"/>
<polygon fill="blue" stroke="blue" points="116.59,-148.22 113.09,-138.22 109.59,-148.22 116.59,-148.22"/>
<text text-anchor="middle" x="135.59" y="-174.8" font-family="Times,serif" font-size="14.00">Sync</text>
<text text-anchor="middle" x="135.59" y="-159.8" font-family="Times,serif" font-size="14.00">P0/U0</text>
</g>
<!-- context.Storage -->
<g id="node17" class="node">
<title>context.Storage</title>
<ellipse fill="lightgrey" stroke="black" cx="465.09" cy="-120" rx="100.98" ry="18"/>
<text text-anchor="middle" x="465.09" y="-116.3" font-family="Times,serif" font-size="14.00">context.Storage [0]</text>
</g>
<!-- vmhooks.storageStore&#45;&gt;context.Storage -->
<g id="edge16" class="edge">
<title>vmhooks.storageStore&#45;&gt;context.Storage</title>
<path fill="none" stroke="blue" d="M465.09,-203.58C465.09,-188.38 465.09,-166.07 465.09,-148.46"/>
<polygon fill="blue" stroke="blue" points="468.59,-148.22 465.09,-138.22 461.59,-148.22 468.59,-148.22"/>
<text text-anchor="middle" x="487.59" y="-174.8" font-family="Times,serif" font-size="14.00">Sync</text>
<text text-anchor="middle" x="487.59" y="-159.8" font-family="Times,serif" font-size="14.00">P0/U0</text>
</g>
<!-- hostCore.ExecuteOnDestContext -->
<g id="node14" class="node">
<title>hostCore.ExecuteOnDestContext</title>
<ellipse fill="lightgrey" stroke="black" cx="1331.09" cy="-120" rx="180.07" ry="18"/>
<text text-anchor="middle" x="1331.09" y="-116.3" font-family="Times,serif" font-size="14.00">hostCore.ExecuteOnDestContext [0]</text>
</g>
<!-- vmhooks.transferValueExecute&#45;&gt;hostCore.ExecuteOnDestContext -->
<g id="edge17" class="edge">
<title>vmhooks.transferValueExecute&#45;&gt;hostCore.ExecuteOnDestContext</title>
<path fill="none" stroke="blue" d="M945.84,-205.48C1028.14,-187.44 1163.72,-157.7 1250.15,-138.75"/>
<polygon fill="blue" stroke="blue" points="1251.16,-142.11 1260.17,-136.55 1249.66,-135.28 1251.16,-142.11"/>
<text text-anchor="middle" x="1193.59" y="-174.8" font-family="Times,serif" font-size="14.00">Sync</text>
<text text-anchor="middle" x="1193.59" y="-159.8" font-family="Times,serif" font-size="14.00">P0/U0</text>
</g>
<!-- vmhooks.executeOnDestContext&#45;&gt;hostCore.ExecuteOnDestContext -->
<g id="edge18" class="edge">
<title>vmhooks.executeOnDestContext&#45;&gt;hostCore.ExecuteOnDestContext</title>
<path fill="none" stroke="blue" d="M1331.09,-203.58C1331.09,-188.38 1331.09,-166.07 1331.09,-148.46"/>
<polygon fill="blue" stroke="blue" points="1334.59,-148.22 1331.09,-138.22 1327.59,-148.22 1334.59,-148.22"/>
<text text-anchor="middle" x="1353.59" y="-174.8" font-family="Times,serif" font-size="14.00">Sync</text>
<text text-anchor="middle" x="1353.59" y="-159.8" font-family="Times,serif" font-size="14.00">P0/U0</text>
</g>
<!-- context.Async -->
<g id="node18" class="node">
<title>context.Async</title>
<ellipse fill="lightgrey" stroke="black" cx="1731.09" cy="-120" rx="90.98" ry="18"/>
<text text-anchor="middle" x="1731.09" y="-116.3" font-family="Times,serif" font-size="14.00">context.Async [0]</text>
</g>
<!-- vmhooks.asyncCall&#45;&gt;context.Async -->
<g id="edge19" class="edge">
<title>vmhooks.asyncCall&#45;&gt;context.Async</title>
<path fill="none" stroke="blue" d="M1731.09,-203.58C1731.09,-188.38 1731.09,-166.07 1731.09,-148.46"/>
<polygon fill="blue" stroke="blue" points="1734.59,-148.22 1731.09,-138.22 1727.59,-148.22 1734.59,-148.22"/>
<text text-anchor="middle" x="1753.59" y="-174.8" font-family="Times,serif" font-size="14.00">Sync</text>
<text text-anchor="middle" x="1753.59" y="-159.8" font-family="Times,serif" font-size="14.00">P0/U0</text>
</g>
<!-- hostCore.ExecuteOnDestContext&#45;&gt;hostCore.execute -->
<g id="edge13" class="edge">
<title>hostCore.ExecuteOnDestContext&#45;&gt;hostCore.execute</title>
<path fill="none" stroke="blue" d="M1427.37,-104.78C1559.05,-85.33 1793.45,-50.7 1920.46,-31.94"/>
<polygon fill="blue" stroke="blue" points="1921.15,-35.38 1930.53,-30.46 1920.13,-28.45 1921.15,-35.38"/>
<text text-anchor="middle" x="1791.59" y="-72.8" font-family="Times,serif" font-size="14.00">Sync</text>
<text text-anchor="middle" x="1791.59" y="-57.8" font-family="Times,serif" font-size="14.00">P0/U0</text>
</g>
<!-- hostCore.ExecuteOnSameContext -->
<g id="node15" class="node">
<title>hostCore.ExecuteOnSameContext</title>
<ellipse fill="lightgrey" stroke="black" cx="2356.09" cy="-120" rx="184.67" ry="18"/>
<text text-anchor="middle" x="2356.09" y="-116.3" font-family="Times,serif" font-size="14.00">hostCore.ExecuteOnSameContext [0]</text>
</g>
<!-- hostCore.ExecuteOnSameContext&#45;&gt;hostCore.execute -->
<g id="edge14" class="edge">
<title>hostCore.ExecuteOnSameContext&#45;&gt;hostCore.execute</title>
<path fill="none" stroke="blue" d="M2299.79,-102.82C2236.67,-84.68 2134.63,-55.36 2069.49,-36.64"/>
<polygon fill="blue" stroke="blue" points="2070.34,-33.25 2059.76,-33.85 2068.41,-39.97 2070.34,-33.25"/>
<text text-anchor="middle" x="2255.59" y="-72.8" font-family="Times,serif" font-size="14.00">Sync</text>
<text text-anchor="middle" x="2255.59" y="-57.8" font-family="Times,serif" font-size="14.00">P0/U0</text>
</g>
</g>
</svg>
